<?xml version="1.0" encoding="UTF-8"?>
<svg width="48px" height="47px" viewBox="0 0 48 47" version="1.1" xmlns="http://www.w3.org/2000/svg" xmlns:xlink="http://www.w3.org/1999/xlink">
    <title>Img</title>
    <defs>
        <polygon id="path-1" points="0.006 0.01 48 0.01 48 47 0.006 47"></polygon>
    </defs>
    <g id="Page-1" stroke="none" stroke-width="1" fill="none" fill-rule="evenodd">
        <g id="Desktop" transform="translate(-1128.000000, -1884.000000)">
            <g id="Upload-Images" transform="translate(719.000000, 1798.000000)">
                <g id="Upload-Image-Copy-2" transform="translate(358.000000, 49.000000)">
                    <g id="Img" transform="translate(51.000000, 37.000000)">
                        <path d="M36,13.94 C37.687,13.94 39.06,15.31 39.06,17 C39.06,18.69 37.687,20.06 36,20.06 C34.313,20.06 32.94,18.69 32.94,17 C32.94,15.31 34.313,13.94 36,13.94 Z M36,22 C38.757,22 41,19.76 41,17 C41,14.24 38.757,12 36,12 C33.243,12 31,14.24 31,17 C31,19.76 33.243,22 36,22 Z" id="Shape" fill="#979797"></path>
                        <path d="M35.923,41.62 C35.898,41.56 35.867,41.5 35.831,41.44 C35.795,41.39 35.753,41.34 35.707,41.29 C35.661,41.25 35.61,41.2 35.555,41.17 C35.501,41.13 35.443,41.1 35.382,41.08 C35.322,41.05 35.259,41.03 35.195,41.02 C35.066,40.99 34.934,40.99 34.805,41.02 C34.741,41.03 34.678,41.05 34.618,41.08 C34.557,41.1 34.499,41.13 34.445,41.17 C34.39,41.2 34.339,41.25 34.293,41.29 C34.247,41.34 34.205,41.39 34.169,41.44 C34.133,41.5 34.102,41.56 34.077,41.62 C34.052,41.68 34.032,41.74 34.02,41.8 C34.007,41.87 34,41.93 34,42 C34,42.06 34.007,42.13 34.02,42.19 C34.032,42.26 34.052,42.32 34.077,42.38 C34.102,42.44 34.133,42.5 34.169,42.55 C34.205,42.61 34.247,42.66 34.293,42.71 C34.316,42.73 34.34,42.75 34.365,42.77 C34.391,42.79 34.417,42.81 34.445,42.83 C34.499,42.87 34.557,42.9 34.618,42.92 C34.678,42.95 34.741,42.97 34.805,42.98 C34.869,42.99 34.935,43 35,43 C35.065,43 35.131,42.99 35.195,42.98 C35.259,42.97 35.322,42.95 35.382,42.92 C35.443,42.9 35.501,42.87 35.555,42.83 C35.583,42.81 35.609,42.79 35.635,42.77 C35.66,42.75 35.684,42.73 35.707,42.71 C35.753,42.66 35.795,42.61 35.831,42.55 C35.867,42.5 35.898,42.44 35.923,42.38 C35.948,42.32 35.968,42.26 35.981,42.19 C35.994,42.13 36,42.06 36,42 C36,41.93 35.994,41.87 35.981,41.8 C35.968,41.74 35.948,41.68 35.923,41.62 Z" id="Path" fill="#979797" opacity="0.97"></path>
                        <mask id="mask-2" fill="white">
                            <use xlink:href="#path-1"></use>
                        </mask>
                        <g id="Path"></g>
                        <g id="Group" mask="url(#mask-2)" fill="#979797" opacity="0.97">
                            <path d="M19.162,5.44 C19.185,5.5 19.213,5.55 19.247,5.61 C19.282,5.66 19.321,5.71 19.364,5.75 C19.407,5.79 19.455,5.83 19.507,5.86 C19.557,5.9 19.612,5.93 19.668,5.95 C19.725,5.97 19.784,5.99 19.844,6 C19.904,6.02 19.966,6.02 20.027,6.02 C20.088,6.02 20.15,6.02 20.21,6 C20.27,5.99 20.329,5.97 20.385,5.95 C20.442,5.93 20.497,5.9 20.547,5.86 C20.599,5.83 20.647,5.79 20.69,5.75 C20.733,5.71 20.772,5.66 20.806,5.61 C20.84,5.55 20.869,5.5 20.892,5.44 C20.916,5.39 20.934,5.33 20.946,5.27 C20.958,5.21 20.964,5.15 20.964,5.09 C20.964,5.02 20.958,4.96 20.946,4.9 C20.934,4.84 20.916,4.78 20.892,4.73 C20.869,4.67 20.84,4.62 20.806,4.57 C20.772,4.52 20.733,4.47 20.69,4.42 C20.647,4.38 20.599,4.34 20.547,4.31 C20.497,4.27 20.442,4.24 20.385,4.22 C20.329,4.2 20.27,4.18 20.21,4.17 C20.089,4.14 19.965,4.14 19.844,4.17 C19.784,4.18 19.725,4.2 19.668,4.22 C19.612,4.24 19.557,4.27 19.507,4.31 C19.455,4.34 19.407,4.38 19.364,4.42 C19.321,4.47 19.282,4.52 19.247,4.57 C19.213,4.62 19.185,4.67 19.162,4.73 C19.138,4.78 19.119,4.84 19.108,4.9 C19.096,4.96 19.089,5.02 19.089,5.09 C19.089,5.15 19.096,5.21 19.108,5.27 C19.119,5.33 19.138,5.39 19.162,5.44 Z" id="Path"></path>
                            <path d="M46.125,32.42 L42.908,29.48 L41.033,28.05 C39.811,27.54 38.359,27.72 37.293,28.6 L33.077,32.09 C32.614,32.48 32.008,32.63 31.417,32.52 C30.825,32.41 30.32,32.04 30.032,31.51 L25.422,23.06 L25.422,23.06 L22.443,17.59 C21.808,16.43 20.635,15.72 19.307,15.7 C17.979,15.68 16.783,16.34 16.108,17.49 L6.967,32.96 L6.967,9.53 C6.967,7.6 8.545,6.02 10.484,6.02 L16.277,6.02 C16.795,6.02 17.214,5.6 17.214,5.09 C17.214,4.57 16.795,4.15 16.277,4.15 L10.484,4.15 C7.511,4.15 5.092,6.56 5.092,9.53 L5.092,40.97 C3.293,40.82 1.875,39.31 1.875,37.47 L1.875,8.1 C1.875,4.67 4.668,1.88 8.102,1.88 L37.516,1.88 C39.017,1.88 40.301,2.82 40.804,4.15 L23.777,4.15 C23.259,4.15 22.839,4.57 22.839,5.09 C22.839,5.6 23.259,6.02 23.777,6.02 L41.033,6.02 L42.908,6.04 C44.707,6.19 46.125,7.7 46.125,9.53 L46.125,32.42 Z M46.125,41.62 C46.125,43.55 44.547,45.13 42.608,45.13 L10.484,45.13 C8.983,45.13 7.699,44.18 7.196,42.86 C7.049,42.47 6.967,42.05 6.967,41.62 L6.967,36.65 L17.723,18.44 C18.05,17.88 18.634,17.56 19.275,17.5697724 C19.919,17.58 20.488,17.92 20.796,18.49 L32.159,39.32 C32.329,39.64 32.651,39.81 32.983,39.81 C33.134,39.81 33.288,39.78 33.43,39.7 C33.885,39.45 34.053,38.88 33.805,38.43 L31.621,34.42 C32.58,34.47 33.523,34.16 34.275,33.54 L38.491,30.04 C39.167,29.48 40.165,29.51 40.813,30.1 L46.125,34.96 L46.125,41.62 Z M42.762,4.15 C42.2,1.78 40.062,0.01 37.516,0.01 L8.102,0.01 C3.634,0.01 0,3.64 0,8.1 L0,37.47 C0,40.39 2.336,42.77 5.238,42.85 C5.8,45.23 7.938,47 10.484,47 L42.608,47 C45.581,47 48,44.58 48,41.62 L48,9.53 C48,6.62 45.664,4.24 42.762,4.15 Z" id="Shape"></path>
                        </g>
                    </g>
                </g>
            </g>
        </g>
    </g>
</svg>