<svg xmlns="http://www.w3.org/2000/svg" width="32" height="32" fill-rule="evenodd" xmlns:v="https://vecta.io/nano"><path fill="#a45b37" d="M0 0h32v32H0z"/><path d="M18.766 27.777c-10.48 0-11.454-7.656-11.454-11.486 0-7.722 4.284-12.068 11.682-12.068 3.198 0 4.888.576 5.472.826.142.062.23.204.22.36a33.1 33.1 0 0 0-.048 1.864l.014 1.074a.37.37 0 0 1-.656.238c-1.136-1.42-2.364-2.222-4.97-2.222-3.31 0-8.21 1.396-8.21 9.766 0 5.192 1.656 9.506 8.08 9.506 2.69 0 3.952-.846 5.1-2.282a.37.37 0 0 1 .66.236l-.018 1.268a30.33 30.33 0 0 0 .046 1.712c.01.166-.09.312-.248.368-.69.242-2.696.84-5.67.84" fill="#fffdf9"/></svg>