<svg width="50" height="43" xmlns="http://www.w3.org/2000/svg"><g fill="none" fill-rule="evenodd"><path d="M2.82 24.723c0 2.24 2.226 3.295 2.226 3.295S2.82 29.072 2.82 31.313c0-2.24-2.227-3.295-2.227-3.295s2.227-1.054 2.227-3.295M26.812 16.78l-.804-.777 1.109-.16.498-.99.498.99 1.109.16-.804.776.193 1.086-.996-.515-.996.515z" fill="#D7E9FF"/><path stroke="#000" stroke-width=".8" stroke-linecap="round" stroke-linejoin="round" d="M27.615 14.853l.498.99 1.109.16-.804.777.193 1.085-.996-.515-.996.515.193-1.085-.804-.778 1.109-.158z"/><path d="M35.935 26.414c4.193-8.672.466-19.056-8.324-23.192a17.82 17.82 0 0 0-4.72-1.462 32.437 32.437 0 0 0-1.95-.27 20.6 20.6 0 0 1 10.27-.768C42.587 2.6 50.267 13.22 48.364 24.442c-1.903 11.224-12.668 18.8-24.044 16.923a20.81 20.81 0 0 1-12.373-6.804 18.64 18.64 0 0 0 5.113 1.589 17.725 17.725 0 0 0 14.494-4.036s1.474-.978 2.598-2.697c1.154-1.762 1.783-3.003 1.783-3.003" fill="#A7BACA"/><path d="M35.935 26.414c4.193-8.672.466-19.056-8.324-23.192a17.82 17.82 0 0 0-4.72-1.462 32.437 32.437 0 0 0-1.95-.27 20.6 20.6 0 0 1 10.27-.768C42.587 2.6 50.267 13.22 48.364 24.442c-1.903 11.224-12.668 18.8-24.044 16.923a20.81 20.81 0 0 1-12.373-6.804 18.64 18.64 0 0 0 5.113 1.589 17.725 17.725 0 0 0 14.494-4.036s1.474-.978 2.598-2.697c1.154-1.762 1.783-3.003 1.783-3.003z" stroke="#000" stroke-width=".8" stroke-linecap="round" stroke-linejoin="round"/><path d="M2.812 20.502h14.46a.798.798 0 0 0 .803-.793v-.792c.115-1.636-1.135-3.055-2.795-3.17a3.073 3.073 0 0 0-.419 0h-.25c-.73-1.598-2.23-2.377-4.57-2.377-2.193 0-3.918.913-4.588 2.377h-.23c-1.737-.039-3.175 1.318-3.214 3.03a2.019 2.019 0 0 0 0 .14v.792c0 .439.36.793.803.793" fill="#FFF"/><path d="M2.812 20.502h14.46a.798.798 0 0 0 .803-.793v-.792c.115-1.636-1.135-3.055-2.795-3.17a3.073 3.073 0 0 0-.419 0h-.25c-.73-1.598-2.23-2.377-4.57-2.377-2.193 0-3.918.913-4.588 2.377h-.23c-1.737-.039-3.175 1.318-3.214 3.03a2.019 2.019 0 0 0 0 .14v.792c0 .439.36.793.803.793z" stroke="#000" stroke-width=".8"/><path d="M19.98 30.804h19.828c.607 0 1.101-.487 1.101-1.087V28.63c.159-2.243-1.556-4.19-3.831-4.347a4.353 4.353 0 0 0-.575 0h-.341c-1.002-2.191-3.06-3.26-6.268-3.26-3.008 0-5.374 1.253-6.292 3.26h-.317c-2.38-.053-4.353 1.808-4.406 4.156a3.785 3.785 0 0 0 0 .191v1.087c0 .6.493 1.087 1.101 1.087" fill="#FFF"/><path d="M19.98 30.804h19.828c.607 0 1.101-.487 1.101-1.087V28.63c.159-2.243-1.556-4.19-3.831-4.347a4.353 4.353 0 0 0-.575 0h-.341c-1.002-2.191-3.06-3.26-6.268-3.26-3.008 0-5.374 1.253-6.292 3.26h-.317c-2.38-.053-4.353 1.808-4.406 4.156a3.785 3.785 0 0 0 0 .191v1.087c0 .6.493 1.087 1.101 1.087z" stroke="#231F20" stroke-width=".8"/><path d="M43.172 12.827a17.333 17.333 0 0 1 2.023 11.092 12.981 12.981 0 0 1-1.505 4.32M2.82 31.596c0-2.433 2.418-3.579 2.418-3.579M2.82 24.44c0 2.432 2.418 3.578 2.418 3.578M2.82 24.44c0 2.432-2.419 3.578-2.419 3.578M2.82 31.596c0-2.433-2.419-3.579-2.419-3.579M9.239 33.949v3.17M8.435 35.534H10.042" stroke="#000" stroke-width=".8" stroke-linecap="round" stroke-linejoin="round"/><path d="M22.215 8.316a23.772 23.772 0 0 1 1.87 2.757c-.665.618-1.345 1.592-1.345 2.918 0-2.578-2.561-3.79-2.561-3.79s1.28-.609 2.036-1.885" fill="#CCD1D9"/><path d="M22.74 6.409c0 2.578 2.562 3.79 2.562 3.79s-.602.279-1.217.873c-.665.618-1.345 1.593-1.345 2.919 0-2.578-2.561-3.791-2.561-3.791s1.28-.607 2.036-1.884c.308-.517.525-1.15.525-1.907" fill="#D7E9FF"/><path d="M22.74 13.991c0-1.326.68-2.3 1.345-2.92a4.94 4.94 0 0 1 1.217-.87M22.74 6.409c0 2.578 2.562 3.79 2.562 3.79M22.74 6.409c0 .757-.217 1.39-.525 1.907C21.46 9.593 20.18 10.2 20.18 10.2M22.74 13.991c0-2.578-2.561-3.79-2.561-3.79M47.408 35.534v4.814M46.189 37.941h2.44" stroke="#000" stroke-width=".8" stroke-linecap="round" stroke-linejoin="round"/></g></svg>