<svg width="103" height="45" xmlns="http://www.w3.org/2000/svg" xmlns:xlink="http://www.w3.org/1999/xlink"><defs><path id="a" d="M0 44.602h102.402V.284H0z"/></defs><g fill="none" fill-rule="evenodd"><path fill="#99AAB8" d="M20 1h48v35H20z"/><path fill="#E4EBEF" d="M19.397 38.793H67.5V35.69H19.397z"/><path d="M97.859 33.12v-2.695h2.247c.185 1.01.291 1.968.343 2.696h-2.59z" fill="#DDDDDC"/><path d="M100.106 30.424h-1.32c.183 1.012.29 1.969.342 2.696h1.321a25.642 25.642 0 0 0-.343-2.696M21.18 35.805l.013-1.336V3.459c0-1.497 1.176-2.696 2.644-2.696h-1.322c-1.467 0-2.643 1.2-2.643 2.696v31.01l-.013 1.336-1.31-.014v2.724h1.323V35.79l1.308.014z" fill="#B9B9BA"/><path d="M100.502 35.817V34.47s0-.54-.052-1.349h-2.59v-2.697h2.247c-.344-1.887-1.005-3.95-2.248-5.055-2.644-2.36-6.635-5.73-6.635-5.73h-5.26V7.503h1.611c-1.534-3.667-3.45-6.74-5.578-6.74h-14.54v37.752h13.219l1.347-.056c-.013-.2-.026-.403-.026-.62a6.098 6.098 0 0 1 2.631-5.029 5.745 5.745 0 0 1 3.317-1.037c3.28 0 5.949 2.724 5.949 6.067 0 .216-.013.419-.027.62l1.348.055h6.61v-2.698h-1.323z" fill="#FFF"/><path d="M86.253 7.504h1.322C86.041 3.836 84.125.763 81.997.763h-1.322c2.13 0 4.044 3.073 5.578 6.74M98.785 30.424h1.32c-.342-1.887-1.003-3.95-2.247-5.056-2.643-2.36-6.633-5.73-6.633-5.73h-1.323s3.992 3.37 6.635 5.73c1.243 1.105 1.904 3.169 2.248 5.056" fill="#B9B9BA"/><mask id="b" fill="#fff"><use xlink:href="#a"/></mask><path fill="#B9B9BA" mask="url(#b)" d="M100.502 38.514h1.323v-2.697h-1.323zM100.45 33.12h-1.321c.051.81.051 1.35.051 1.35v1.347h1.323v-1.348s0-.54-.053-1.348"/><path d="M87.575 7.504c2.247 5.42 3.649 12.134 3.649 12.134h-5.261V7.504h1.612z" fill="#DDDDDC" mask="url(#b)"/><path d="M88.356 9.524l-2.394 9.11v1.004h1.105l2.061-7.842a65.461 65.461 0 0 0-.772-2.272" fill="#FFF" mask="url(#b)"/><path fill="#E4EBEF" mask="url(#b)" d="M67.457 38.685h34.368v-2.823H67.457z"/><path d="M93.894 37.948c0 3.35-2.664 6.067-5.948 6.067-3.285 0-5.948-2.717-5.948-6.067s2.663-6.067 5.948-6.067c3.284 0 5.948 2.717 5.948 6.067" fill="#A7BACA" mask="url(#b)"/><path d="M83.32 37.948c0-3.118 2.318-5.66 5.287-5.999-.22-.026-.434-.068-.662-.068-3.283 0-5.948 2.717-5.948 6.067s2.665 6.067 5.948 6.067c.228 0 .442-.042.662-.068-2.969-.34-5.288-2.881-5.288-5.999" fill="#DDDDDC" mask="url(#b)"/><path d="M92.572 37.948c0 3.118-2.32 5.659-5.288 6 .22.025.434.067.66.067 3.285 0 5.95-2.717 5.95-6.067s-2.665-6.067-5.95-6.067c-.226 0-.44.042-.66.068 2.969.34 5.288 2.88 5.288 6" fill="#B9B9BA" mask="url(#b)"/><path d="M91.25 37.948c0 1.86-1.482 3.371-3.305 3.371-1.822 0-3.305-1.512-3.305-3.37 0-1.86 1.483-3.372 3.305-3.372 1.823 0 3.305 1.512 3.305 3.371" fill="#DDDDDC" mask="url(#b)"/><path d="M46.307 37.948c0 3.35-2.663 6.067-5.948 6.067-3.284 0-5.948-2.717-5.948-6.067s2.664-6.067 5.948-6.067c3.285 0 5.948 2.717 5.948 6.067" fill="#A7BACA" mask="url(#b)"/><path d="M35.733 37.948c0-3.118 2.319-5.66 5.288-5.999-.22-.026-.434-.068-.66-.068-3.285 0-5.949 2.717-5.949 6.067s2.664 6.067 5.948 6.067c.227 0 .44-.042.66-.068-2.968-.34-5.287-2.881-5.287-5.999" fill="#DDDDDC" mask="url(#b)"/><path d="M44.986 37.948c0 3.118-2.319 5.659-5.288 6 .22.025.434.067.661.067 3.284 0 5.948-2.717 5.948-6.067s-2.664-6.067-5.948-6.067c-.227 0-.44.042-.66.068 2.968.34 5.287 2.88 5.287 6" fill="#B9B9BA" mask="url(#b)"/><path d="M43.664 37.948c0 1.86-1.482 3.371-3.305 3.371-1.823 0-3.304-1.512-3.304-3.37 0-1.86 1.481-3.372 3.304-3.372 1.823 0 3.305 1.512 3.305 3.371" fill="#DDDDDC" mask="url(#b)"/><path d="M22.515.87h59.482c5.287 0 9.225 18.877 9.225 18.877s3.996 3.367 6.639 5.727c2.642 2.362 2.644 9.103 2.644 9.103M19.871 34.577V3.567M47.63 38.622h33.045M95.215 38.622h6.61M101.825 38.622l.002-2.696M101.827 35.926h-2.646M67.457 2.219v34.996M85.963 7.612v12.134M85.963 19.746h5.287M85.963 7.612h1.605M18.55 38.622h14.54M18.55 38.622v-2.724M22.515 35.926l-3.965-.027M19.871 3.567c0-1.49 1.182-2.696 2.644-2.696M93.894 37.948c0 3.35-2.664 6.067-5.948 6.067-3.285 0-5.948-2.717-5.948-6.067s2.663-6.067 5.948-6.067c3.284 0 5.948 2.717 5.948 6.067z" stroke="#434343" stroke-linecap="round" stroke-linejoin="round" mask="url(#b)"/><path d="M91.25 37.948c0 1.86-1.482 3.371-3.305 3.371-1.822 0-3.305-1.512-3.305-3.37 0-1.86 1.483-3.372 3.305-3.372 1.823 0 3.305 1.512 3.305 3.371" fill="#FFF" mask="url(#b)"/><path d="M91.25 37.948c0 1.86-1.482 3.371-3.305 3.371-1.822 0-3.305-1.512-3.305-3.37 0-1.86 1.483-3.372 3.305-3.372 1.823 0 3.305 1.512 3.305 3.371zM46.307 37.948c0 3.35-2.663 6.067-5.948 6.067-3.284 0-5.948-2.717-5.948-6.067s2.664-6.067 5.948-6.067c3.285 0 5.948 2.717 5.948 6.067z" stroke="#434343" stroke-linecap="round" stroke-linejoin="round" mask="url(#b)"/><path d="M43.664 37.948c0 1.86-1.482 3.371-3.305 3.371-1.823 0-3.304-1.512-3.304-3.37 0-1.86 1.481-3.372 3.304-3.372 1.823 0 3.305 1.512 3.305 3.371" fill="#FFF" mask="url(#b)"/><path d="M43.664 37.948c0 1.86-1.482 3.371-3.305 3.371-1.823 0-3.304-1.512-3.304-3.37 0-1.86 1.481-3.372 3.304-3.372 1.823 0 3.305 1.512 3.305 3.371zM100.106 30.533H97.86M97.859 30.533v2.696M97.859 33.23h2.595M83.32 22.443v8.09M80.675 22.612v2.528M17.836 7.894h-6.784M7.48 7.894h1.15M.575 3.199h11.508M15.535 3.199h-1.15" stroke="#434343" stroke-linecap="round" stroke-linejoin="round" mask="url(#b)"/><path d="M76.87 19.531h-5.24c-.721 0-1.312-.602-1.312-1.337V8.841c0-.735.59-1.337 1.311-1.337H80.8c.72 0 1.31.602 1.31 1.337v9.353c0 .735-.59 1.337-1.31 1.337h-3.93z" fill="#94C1FF" mask="url(#b)"/><path d="M82.11 8.84v9.355c0 .735-.59 1.336-1.31 1.336h-3.93V7.503h3.93c.72 0 1.31.602 1.31 1.337" fill="#FFF" mask="url(#b)"/><path d="M76.87 19.505v.026h-5.24c-.721 0-1.312-.601-1.312-1.336V8.84c0-.735.59-1.337 1.311-1.337h5.24v12.002z" fill="#DDDDDC" mask="url(#b)"/><path d="M74.564 7.504l-3.147 11.982c.071.015.137.045.212.045h1.133l3.159-12.027h-1.357z" fill="#FFF" mask="url(#b)"/><path d="M70.319 18.302c0 .735.59 1.337 1.31 1.337H80.8c.72 0 1.31-.602 1.31-1.337V8.947c0-.735-.59-1.336-1.31-1.336h-9.17c-.721 0-1.311.601-1.311 1.336v9.355zM76.87 7.61v12" stroke="#434343" stroke-linecap="round" stroke-linejoin="round" mask="url(#b)"/></g></svg>