<svg width="57" height="35" xmlns="http://www.w3.org/2000/svg" xmlns:xlink="http://www.w3.org/1999/xlink"><defs><path id="a" d="M0 33.51h56.793V0H0z"/></defs><g transform="translate(0 1)" fill="none" fill-rule="evenodd"><path d="M47.698 9.814a.823.823 0 0 0 1.166 0 .812.812 0 0 0 0-1.16l-.775-.772a.824.824 0 0 0-1.168 0 .812.812 0 0 0 0 1.16l.777.772zM45.947.334l10.51 10.449-12.953 12.932-.068-1.354-.744-14.364c-.033-.903-.804-1.642-1.713-1.642h-1.086L45.947.334zm.974 11.418a.822.822 0 0 0 0-1.16l-.782-.778a.835.835 0 0 0-1.167 0 .82.82 0 0 0 0 1.167l.776.771a.83.83 0 0 0 1.173 0z" fill="#B9B9BA"/><path fill="#DDDDDC" d="M43.427 22.183L41.47 6.354l3.433-3.438 1.82-.262 7.4 7.358-.348 1.894z"/><path d="M43.793 7.957c-.054-1.483-1.31-2.689-2.8-2.696l-1.1 1.094h1.086c.175 0 .342.034.503.085l1.067 18.287 1.321-1.357-.077-15.413z" fill="#FFF"/><path d="M48.089 7.882l.775.772a.812.812 0 0 1 0 1.16.823.823 0 0 1-1.166 0l-.777-.771a.812.812 0 0 1 0-1.161.825.825 0 0 1 1.168 0M46.139 9.814l.782.778c.32.317.32.837 0 1.16a.83.83 0 0 1-1.173 0l-.776-.771a.82.82 0 0 1 0-1.167.835.835 0 0 1 1.167 0" fill="#DDDDDC"/><path d="M50.126 33.178a3.293 3.293 0 0 1-3.304-3.285v-1.095a3.293 3.293 0 0 0 3.304 3.285c1.822 0 3.304-1.473 3.304-3.285v1.095c0 1.812-1.482 3.285-3.304 3.285" fill="#B9B9BA"/><path d="M48.409 31.6a3.274 3.274 0 0 1-1.587-2.802v1.095a3.293 3.293 0 0 0 3.854 3.236 3.3 3.3 0 0 1-2.267-1.528" fill="#CCCBCB"/><path d="M55.632 21.135v1.095c0 1.21-.986 2.19-2.202 2.19a2.195 2.195 0 0 1-2.203-2.19v-1.095c0 1.21.985 2.19 2.203 2.19 1.216 0 2.202-.98 2.202-2.19" fill="#B9B9BA"/><path d="M52.526 23.127a2.186 2.186 0 0 1-1.299-1.992v1.094c0 1.21.985 2.19 2.203 2.19.191 0 .373-.032.55-.078a2.194 2.194 0 0 1-1.454-1.214" fill="#CCCBCB"/><path d="M53.43 18.945c1.216 0 2.202.98 2.202 2.19s-.986 2.19-2.202 2.19a2.196 2.196 0 0 1-2.203-2.19c0-1.21.986-2.19 2.203-2.19" fill="#CCCBCB"/><path d="M52.328 21.135c0-1.02.704-1.868 1.652-2.112a2.202 2.202 0 0 0-.55-.078c-1.218 0-2.204.98-2.204 2.19s.986 2.19 2.204 2.19c.191 0 .373-.033.55-.078a2.186 2.186 0 0 1-1.652-2.112" fill="#DDDDDC"/><path d="M53.43 28.798c0 1.812-1.482 3.285-3.304 3.285a3.294 3.294 0 0 1-3.304-3.285 3.294 3.294 0 0 1 3.304-3.284c1.822 0 3.304 1.473 3.304 3.284" fill="#CCCBCB"/><path d="M47.923 28.798a3.288 3.288 0 0 1 2.753-3.235 3.294 3.294 0 0 0-3.854 3.235 3.294 3.294 0 0 0 3.854 3.236 3.287 3.287 0 0 1-2.753-3.236" fill="#DDDDDC"/><path d="M42.902 5.614a.5.5 0 0 1-.706-.708L44.811 2.3a.5.5 0 0 1 .704-.003c.24.236.62.236.856.003a.5.5 0 0 1 .705 0l7.4 7.357a.5.5 0 0 1 0 .71.592.592 0 0 0 .002.84.5.5 0 0 1-.002.708l-9.229 9.174a.5.5 0 1 1-.705-.709l8.93-8.878a1.594 1.594 0 0 1 0-1.434l-6.804-6.764a1.611 1.611 0 0 1-1.446 0l-2.32 2.31z" fill="#434343" fill-rule="nonzero"/><path d="M45.947 1.038l-4.603 4.577a.5.5 0 1 1-.705-.71L45.594-.02a.5.5 0 0 1 .705 0l10.511 10.45a.5.5 0 0 1 0 .709l-11.563 11.5a.5.5 0 1 1-.705-.709l11.206-11.146-9.801-9.745z" fill="#434343" fill-rule="nonzero"/><path d="M50.263 10.04a.5.5 0 0 1 .705.71L46.3 15.395a.5.5 0 0 1-.705-.708l4.669-4.648zM43.689 12.73a.5.5 0 1 1 .705-.708l1.123 1.116a.5.5 0 0 1-.705.71L43.69 12.73zM44.619 9.46a1.336 1.336 0 0 1 1.873 0l.78.777c.517.512.517 1.348.002 1.87a1.33 1.33 0 0 1-1.878 0l-.777-.772a1.32 1.32 0 0 1 0-1.875zm.705 1.166l.776.772c.13.13.338.13.465.003a.321.321 0 0 0 .003-.454l-.782-.778a.335.335 0 0 0-.464.001.32.32 0 0 0 .002.456zM48.441 7.528l.775.771a1.31 1.31 0 0 1 .004 1.866 1.323 1.323 0 0 1-1.875.004l-.777-.772a1.313 1.313 0 0 1 0-1.87 1.325 1.325 0 0 1 1.873 0zm-1.87-.003l-.005.005a1.343 1.343 0 0 1 .005-.005zm.705.709l-.005.005a.313.313 0 0 0 .002.449l.777.771c.13.13.335.13.465-.003a.312.312 0 0 0-.003-.448l-.776-.771a.325.325 0 0 0-.46-.003z" fill="#434343" fill-rule="nonzero"/><path d="M45.134 14.234a.5.5 0 1 1-.71-.704l.388-.392.39-.388a.5.5 0 0 1 .706.709l-.389.386-.385.389zM55.132 21.135c0-.933-.761-1.69-1.702-1.69-.942 0-1.703.757-1.703 1.69 0 .933.76 1.69 1.703 1.69.94 0 1.702-.757 1.702-1.69zm1 0c0 1.486-1.21 2.69-2.702 2.69a2.695 2.695 0 0 1-2.703-2.69c0-1.487 1.21-2.69 2.703-2.69a2.696 2.696 0 0 1 2.702 2.69z" fill="#434343" fill-rule="nonzero"/><path d="M55.132 22.23a.5.5 0 1 1 1 0c0 1.486-1.21 2.689-2.702 2.689a2.695 2.695 0 0 1-2.703-2.69.5.5 0 1 1 1 0c0 .933.76 1.69 1.703 1.69.94 0 1.702-.757 1.702-1.69z" fill="#434343" fill-rule="nonzero"/><path d="M51.727 22.23a.5.5 0 1 1-1 0v-1.096a.5.5 0 1 1 1 0v1.096zM56.132 22.23a.5.5 0 1 1-1 0v-1.096a.5.5 0 1 1 1 0v1.096zM52.93 20.587a.5.5 0 1 1 1 0v1.095a.5.5 0 0 1-1 0v-1.095zM52.93 28.798c0-1.534-1.258-2.784-2.804-2.784a2.794 2.794 0 0 0-2.804 2.784 2.794 2.794 0 0 0 2.804 2.785c1.546 0 2.804-1.25 2.804-2.785zm1 0c0 2.089-1.707 3.785-3.804 3.785-2.102 0-3.804-1.694-3.804-3.785 0-2.09 1.702-3.784 3.804-3.784 2.097 0 3.804 1.696 3.804 3.784z" fill="#434343" fill-rule="nonzero"/><path d="M52.93 29.893a.5.5 0 1 1 1 0c0 2.089-1.707 3.785-3.804 3.785-2.102 0-3.804-1.694-3.804-3.785a.5.5 0 0 1 1 0 2.794 2.794 0 0 0 2.804 2.785c1.546 0 2.804-1.25 2.804-2.785z" fill="#434343" fill-rule="nonzero"/><path d="M49.626 27.704a.5.5 0 1 1 1 0v2.189a.5.5 0 0 1-1 0v-2.19zM53.93 29.893a.5.5 0 0 1-1 0v-1.095a.5.5 0 1 1 1 0v1.095zM46.322 28.798a.5.5 0 0 1 1 0v1.095a.5.5 0 1 1-1 0v-1.095z" fill="#434343" fill-rule="nonzero"/><path d="M42.582 15.177v14.667c0 .733-.603 1.333-1.34 1.333H1.676a1.34 1.34 0 0 1-1.342-1.333V15.177h42.247z" fill="#FFF"/><path fill="#CCCBCB" d="M42.582 10.51v4.667H.335v-4.666h40.906z"/><path d="M42.582 7.844v2.667H.335V7.844A1.34 1.34 0 0 1 1.677 6.51H41.24c.738 0 1.341.6 1.341 1.333M1.677 29.844V15.177H.335v14.667a1.34 1.34 0 0 0 1.342 1.333h1.34a1.34 1.34 0 0 1-1.34-1.333" fill="#FFF"/><path d="M3.018 6.51H1.677c-.739 0-1.342.6-1.342 1.334v2.667h1.342V7.844a1.34 1.34 0 0 1 1.34-1.333" fill="#FFF"/><path d="M41.235 29.844V15.177h1.34v14.667c0 .733-.603 1.333-1.34 1.333h-1.342c.738 0 1.342-.6 1.342-1.333M39.893 6.51h1.342c.737 0 1.34.6 1.34 1.334v2.667h-1.34V7.844c0-.733-.604-1.333-1.342-1.333" fill="#CCCBCB"/><mask id="b" fill="#fff"><use xlink:href="#a"/></mask><path fill="#B9B9BA" mask="url(#b)" d="M41.241 15.177h1.341V10.51h-1.34z"/><path d="M-.165 7.844A1.84 1.84 0 0 1 1.677 6.01H41.24c1.013 0 1.841.823 1.841 1.833v22c0 1.01-.828 1.833-1.84 1.833H1.676a1.84 1.84 0 0 1-1.842-1.833v-22zm1 22a.84.84 0 0 0 .842.833H41.24a.841.841 0 0 0 .841-.833v-22a.841.841 0 0 0-.84-.833H1.676a.84.84 0 0 0-.842.833v22z" fill="#434343" fill-rule="nonzero" mask="url(#b)"/><path d="M1.006 11.01a.5.5 0 1 1 0-1h40.906a.5.5 0 0 1 0 1H1.006zM1.006 15.677a.5.5 0 1 1 0-1h40.906a.5.5 0 0 1 0 1H1.006z" fill="#434343" fill-rule="nonzero" mask="url(#b)"/></g></svg>