<svg xmlns="http://www.w3.org/2000/svg" width="800" height="450" viewBox="0 0 800 450">
  <rect width="800" height="450" fill="#22201D"/>
  <rect x="10.0" y="10.0" width="69.0" height="63.3" rx="6" fill="#ffffff" fill-opacity="0.03" stroke="#ffffff" stroke-opacity="0.06"/>
  <rect x="89.0" y="10.0" width="69.0" height="63.3" rx="6" fill="#667A54" fill-opacity="0.22" stroke="#ffffff" stroke-opacity="0.06"/>
  <rect x="168.0" y="10.0" width="69.0" height="63.3" rx="6" fill="#C08B2C" fill-opacity="0.67" stroke="#ffffff" stroke-opacity="0.06"/>
  <rect x="247.0" y="10.0" width="69.0" height="63.3" rx="6" fill="#315F72" fill-opacity="0.65" stroke="#ffffff" stroke-opacity="0.06"/>
  <rect x="326.0" y="10.0" width="69.0" height="63.3" rx="6" fill="#ffffff" fill-opacity="0.07" stroke="#ffffff" stroke-opacity="0.06"/>
  <rect x="405.0" y="10.0" width="69.0" height="63.3" rx="6" fill="#ffffff" fill-opacity="0.04" stroke="#ffffff" stroke-opacity="0.06"/>
  <rect x="484.0" y="10.0" width="69.0" height="63.3" rx="6" fill="#B95832" fill-opacity="0.20" stroke="#ffffff" stroke-opacity="0.06"/>
  <rect x="563.0" y="10.0" width="69.0" height="63.3" rx="6" fill="#ffffff" fill-opacity="0.07" stroke="#ffffff" stroke-opacity="0.06"/>
  <rect x="642.0" y="10.0" width="69.0" height="63.3" rx="6" fill="#C08B2C" fill-opacity="0.65" stroke="#ffffff" stroke-opacity="0.06"/>
  <rect x="721.0" y="10.0" width="69.0" height="63.3" rx="6" fill="#ffffff" fill-opacity="0.04" stroke="#ffffff" stroke-opacity="0.06"/>
  <rect x="10.0" y="83.3" width="69.0" height="63.3" rx="6" fill="#ffffff" fill-opacity="0.07" stroke="#ffffff" stroke-opacity="0.06"/>
  <rect x="89.0" y="83.3" width="69.0" height="63.3" rx="6" fill="#ffffff" fill-opacity="0.06" stroke="#ffffff" stroke-opacity="0.06"/>
  <rect x="168.0" y="83.3" width="69.0" height="63.3" rx="6" fill="#ffffff" fill-opacity="0.05" stroke="#ffffff" stroke-opacity="0.06"/>
  <rect x="247.0" y="83.3" width="69.0" height="63.3" rx="6" fill="#ffffff" fill-opacity="0.05" stroke="#ffffff" stroke-opacity="0.06"/>
  <rect x="326.0" y="83.3" width="69.0" height="63.3" rx="6" fill="#ffffff" fill-opacity="0.04" stroke="#ffffff" stroke-opacity="0.06"/>
  <rect x="405.0" y="83.3" width="69.0" height="63.3" rx="6" fill="#ffffff" fill-opacity="0.06" stroke="#ffffff" stroke-opacity="0.06"/>
  <rect x="484.0" y="83.3" width="69.0" height="63.3" rx="6" fill="#ffffff" fill-opacity="0.06" stroke="#ffffff" stroke-opacity="0.06"/>
  <rect x="563.0" y="83.3" width="69.0" height="63.3" rx="6" fill="#C08B2C" fill-opacity="0.18" stroke="#ffffff" stroke-opacity="0.06"/>
  <rect x="642.0" y="83.3" width="69.0" height="63.3" rx="6" fill="#ffffff" fill-opacity="0.03" stroke="#ffffff" stroke-opacity="0.06"/>
  <rect x="721.0" y="83.3" width="69.0" height="63.3" rx="6" fill="#315F72" fill-opacity="0.15" stroke="#ffffff" stroke-opacity="0.06"/>
  <rect x="10.0" y="156.7" width="69.0" height="63.3" rx="6" fill="#ffffff" fill-opacity="0.06" stroke="#ffffff" stroke-opacity="0.06"/>
  <rect x="89.0" y="156.7" width="69.0" height="63.3" rx="6" fill="#ffffff" fill-opacity="0.05" stroke="#ffffff" stroke-opacity="0.06"/>
  <rect x="168.0" y="156.7" width="69.0" height="63.3" rx="6" fill="#D4866A" fill-opacity="0.55" stroke="#ffffff" stroke-opacity="0.06"/>
  <rect x="247.0" y="156.7" width="69.0" height="63.3" rx="6" fill="#C08B2C" fill-opacity="0.40" stroke="#ffffff" stroke-opacity="0.06"/>
  <rect x="326.0" y="156.7" width="69.0" height="63.3" rx="6" fill="#ffffff" fill-opacity="0.07" stroke="#ffffff" stroke-opacity="0.06"/>
  <rect x="405.0" y="156.7" width="69.0" height="63.3" rx="6" fill="#ffffff" fill-opacity="0.06" stroke="#ffffff" stroke-opacity="0.06"/>
  <rect x="484.0" y="156.7" width="69.0" height="63.3" rx="6" fill="#ffffff" fill-opacity="0.05" stroke="#ffffff" stroke-opacity="0.06"/>
  <rect x="563.0" y="156.7" width="69.0" height="63.3" rx="6" fill="#ffffff" fill-opacity="0.07" stroke="#ffffff" stroke-opacity="0.06"/>
  <rect x="642.0" y="156.7" width="69.0" height="63.3" rx="6" fill="#ffffff" fill-opacity="0.07" stroke="#ffffff" stroke-opacity="0.06"/>
  <rect x="721.0" y="156.7" width="69.0" height="63.3" rx="6" fill="#ffffff" fill-opacity="0.05" stroke="#ffffff" stroke-opacity="0.06"/>
  <rect x="10.0" y="230.0" width="69.0" height="63.3" rx="6" fill="#ffffff" fill-opacity="0.04" stroke="#ffffff" stroke-opacity="0.06"/>
  <rect x="89.0" y="230.0" width="69.0" height="63.3" rx="6" fill="#ffffff" fill-opacity="0.05" stroke="#ffffff" stroke-opacity="0.06"/>
  <rect x="168.0" y="230.0" width="69.0" height="63.3" rx="6" fill="#ffffff" fill-opacity="0.07" stroke="#ffffff" stroke-opacity="0.06"/>
  <rect x="247.0" y="230.0" width="69.0" height="63.3" rx="6" fill="#315F72" fill-opacity="0.23" stroke="#ffffff" stroke-opacity="0.06"/>
  <rect x="326.0" y="230.0" width="69.0" height="63.3" rx="6" fill="#ffffff" fill-opacity="0.05" stroke="#ffffff" stroke-opacity="0.06"/>
  <rect x="405.0" y="230.0" width="69.0" height="63.3" rx="6" fill="#ffffff" fill-opacity="0.05" stroke="#ffffff" stroke-opacity="0.06"/>
  <rect x="484.0" y="230.0" width="69.0" height="63.3" rx="6" fill="#ffffff" fill-opacity="0.04" stroke="#ffffff" stroke-opacity="0.06"/>
  <rect x="563.0" y="230.0" width="69.0" height="63.3" rx="6" fill="#ffffff" fill-opacity="0.07" stroke="#ffffff" stroke-opacity="0.06"/>
  <rect x="642.0" y="230.0" width="69.0" height="63.3" rx="6" fill="#ffffff" fill-opacity="0.05" stroke="#ffffff" stroke-opacity="0.06"/>
  <rect x="721.0" y="230.0" width="69.0" height="63.3" rx="6" fill="#315F72" fill-opacity="0.67" stroke="#ffffff" stroke-opacity="0.06"/>
  <rect x="10.0" y="303.3" width="69.0" height="63.3" rx="6" fill="#B95832" fill-opacity="0.60" stroke="#ffffff" stroke-opacity="0.06"/>
  <rect x="89.0" y="303.3" width="69.0" height="63.3" rx="6" fill="#ffffff" fill-opacity="0.07" stroke="#ffffff" stroke-opacity="0.06"/>
  <rect x="168.0" y="303.3" width="69.0" height="63.3" rx="6" fill="#ffffff" fill-opacity="0.07" stroke="#ffffff" stroke-opacity="0.06"/>
  <rect x="247.0" y="303.3" width="69.0" height="63.3" rx="6" fill="#ffffff" fill-opacity="0.06" stroke="#ffffff" stroke-opacity="0.06"/>
  <rect x="326.0" y="303.3" width="69.0" height="63.3" rx="6" fill="#C08B2C" fill-opacity="0.19" stroke="#ffffff" stroke-opacity="0.06"/>
  <rect x="405.0" y="303.3" width="69.0" height="63.3" rx="6" fill="#ffffff" fill-opacity="0.07" stroke="#ffffff" stroke-opacity="0.06"/>
  <rect x="484.0" y="303.3" width="69.0" height="63.3" rx="6" fill="#ffffff" fill-opacity="0.06" stroke="#ffffff" stroke-opacity="0.06"/>
  <rect x="563.0" y="303.3" width="69.0" height="63.3" rx="6" fill="#ffffff" fill-opacity="0.05" stroke="#ffffff" stroke-opacity="0.06"/>
  <rect x="642.0" y="303.3" width="69.0" height="63.3" rx="6" fill="#C08B2C" fill-opacity="0.15" stroke="#ffffff" stroke-opacity="0.06"/>
  <rect x="721.0" y="303.3" width="69.0" height="63.3" rx="6" fill="#ffffff" fill-opacity="0.03" stroke="#ffffff" stroke-opacity="0.06"/>
  <rect x="10.0" y="376.7" width="69.0" height="63.3" rx="6" fill="#ffffff" fill-opacity="0.05" stroke="#ffffff" stroke-opacity="0.06"/>
  <rect x="89.0" y="376.7" width="69.0" height="63.3" rx="6" fill="#ffffff" fill-opacity="0.07" stroke="#ffffff" stroke-opacity="0.06"/>
  <rect x="168.0" y="376.7" width="69.0" height="63.3" rx="6" fill="#315F72" fill-opacity="0.53" stroke="#ffffff" stroke-opacity="0.06"/>
  <rect x="247.0" y="376.7" width="69.0" height="63.3" rx="6" fill="#ffffff" fill-opacity="0.06" stroke="#ffffff" stroke-opacity="0.06"/>
  <rect x="326.0" y="376.7" width="69.0" height="63.3" rx="6" fill="#ffffff" fill-opacity="0.04" stroke="#ffffff" stroke-opacity="0.06"/>
  <rect x="405.0" y="376.7" width="69.0" height="63.3" rx="6" fill="#ffffff" fill-opacity="0.03" stroke="#ffffff" stroke-opacity="0.06"/>
  <rect x="484.0" y="376.7" width="69.0" height="63.3" rx="6" fill="#ffffff" fill-opacity="0.04" stroke="#ffffff" stroke-opacity="0.06"/>
  <rect x="563.0" y="376.7" width="69.0" height="63.3" rx="6" fill="#ffffff" fill-opacity="0.05" stroke="#ffffff" stroke-opacity="0.06"/>
  <rect x="642.0" y="376.7" width="69.0" height="63.3" rx="6" fill="#315F72" fill-opacity="0.54" stroke="#ffffff" stroke-opacity="0.06"/>
  <rect x="721.0" y="376.7" width="69.0" height="63.3" rx="6" fill="#ffffff" fill-opacity="0.05" stroke="#ffffff" stroke-opacity="0.06"/>
</svg>
