<svg xmlns="http://www.w3.org/2000/svg" width="468" height="467" viewBox="0 0 468 467"><defs><linearGradient id="t1zua" x1="233.26" x2="233.53" y1="433.43" y2="27.3" gradientUnits="userSpaceOnUse"><stop offset="0" stop-color="#20b038"/><stop offset="1" stop-color="#67d670"/></linearGradient><linearGradient id="t1zub" x1="233.54" x2="233.25" y1="440.71" y2="20.02" gradientUnits="userSpaceOnUse"><stop offset="0" stop-color="#f9f9f9"/><stop offset="1" stop-color="#fff"/></linearGradient><mask id="t1zud" width="2.01" height="2.02" x="-1.01" y="-1.01"><path fill="#fff" d="M125.5 130.5h217v200h-217z"/><path d="M181.97 141.324c-3.916-8.677-8.037-8.853-11.764-9.005-3.048-.127-6.536-.12-10.021-.12-3.486 0-9.15 1.305-13.944 6.52-4.793 5.213-18.3 17.815-18.3 43.453s18.736 50.408 21.35 53.883c2.614 3.478 36.175 57.77 89.323 78.654 44.17 17.354 53.158 13.904 62.744 13.035 9.585-.869 30.936-12.601 35.293-24.768 4.357-12.168 4.357-22.596 3.05-24.771-1.307-2.172-4.793-3.475-10.022-6.082-5.228-2.608-30.936-15.21-35.729-16.948-4.792-1.738-8.278-2.607-11.764 2.608-3.486 5.214-13.507 16.947-16.558 20.422-3.05 3.478-6.1 3.914-11.328 1.306-5.229-2.608-22.077-8.108-42.049-25.854-15.543-13.811-26.038-30.87-29.088-36.087-3.05-5.212-.325-8.033 2.293-10.628 2.352-2.335 5.229-6.085 7.843-9.127 2.614-3.04 3.486-5.212 5.229-8.69 1.742-3.476.87-6.518-.436-9.126-1.307-2.606-11.472-28.372-16.122-38.675z"/></mask><filter id="t1zuc" width="244" height="227" x="112" y="117" filterUnits="userSpaceOnUse"><feOffset in="SourceGraphic" result="FeOffset1067Out"/><feGaussianBlur in="FeOffset1067Out" result="FeGaussianBlur1068Out" stdDeviation="1.4 1.4"/></filter></defs><g><g><g><path fill="url(#t1zua)" d="M30.526 433.43l28.66-104.285c-17.677-30.52-26.98-65.142-26.965-100.61.044-110.961 90.67-201.234 202.02-201.234 54.042.02 104.765 20.98 142.906 59.018 38.142 38.04 59.135 88.603 59.114 142.377-.045 110.96-90.678 201.244-202.018 201.244-.006 0 .007 0 0 0h-.083c-33.811-.012-67.033-8.463-96.54-24.495z"/></g><g><path fill="url(#t1zub)" d="M23.25 440.714L52.938 332.69c-18.312-31.614-27.948-67.478-27.933-104.22.046-114.94 93.922-208.452 209.266-208.452 55.98.023 108.523 21.733 148.033 61.135 39.51 39.404 61.256 91.78 61.233 147.482-.046 114.943-93.93 208.465-209.263 208.465-.007 0 .006 0 0 0h-.086c-35.024-.015-69.438-8.766-100.003-25.373zm116.075-66.73l6.351 3.755c26.704 15.788 57.316 24.139 88.526 24.152h.071c95.868 0 173.894-77.727 173.932-173.269.019-46.297-18.056-89.832-50.894-122.582-32.84-32.75-76.51-50.798-122.97-50.814-95.94 0-173.966 77.721-174.004 173.255-.013 32.738 9.183 64.624 26.593 92.213l4.136 6.553-17.571 63.94z"/></g><g><g><g filter="url(#t1zuc)"><path fill="none" stroke="#000" stroke-opacity=".07" stroke-width="3" d="M181.97 141.324c-3.916-8.677-8.037-8.853-11.764-9.005-3.048-.127-6.536-.12-10.021-.12-3.486 0-9.15 1.305-13.944 6.52-4.793 5.213-18.3 17.815-18.3 43.453s18.736 50.408 21.35 53.883c2.614 3.478 36.175 57.77 89.323 78.654 44.17 17.354 53.158 13.904 62.744 13.035 9.585-.869 30.936-12.601 35.293-24.768 4.357-12.168 4.357-22.596 3.05-24.771-1.307-2.172-4.793-3.475-10.022-6.082-5.228-2.608-30.936-15.21-35.729-16.948-4.792-1.738-8.278-2.607-11.764 2.608-3.486 5.214-13.507 16.947-16.558 20.422-3.05 3.478-6.1 3.914-11.328 1.306-5.229-2.608-22.077-8.108-42.049-25.854-15.543-13.811-26.038-30.87-29.088-36.087-3.05-5.212-.325-8.033 2.293-10.628 2.352-2.335 5.229-6.085 7.843-9.127 2.614-3.04 3.486-5.212 5.229-8.69 1.742-3.476.87-6.518-.436-9.126-1.307-2.606-11.472-28.372-16.122-38.675z" mask="url(&quot;#t1zud&quot;)"/><path fill-opacity=".07" d="M181.97 141.324c-3.916-8.677-8.037-8.853-11.764-9.005-3.048-.127-6.536-.12-10.021-.12-3.486 0-9.15 1.305-13.944 6.52-4.793 5.213-18.3 17.815-18.3 43.453s18.736 50.408 21.35 53.883c2.614 3.478 36.175 57.77 89.323 78.654 44.17 17.354 53.158 13.904 62.744 13.035 9.585-.869 30.936-12.601 35.293-24.768 4.357-12.168 4.357-22.596 3.05-24.771-1.307-2.172-4.793-3.475-10.022-6.082-5.228-2.608-30.936-15.21-35.729-16.948-4.792-1.738-8.278-2.607-11.764 2.608-3.486 5.214-13.507 16.947-16.558 20.422-3.05 3.478-6.1 3.914-11.328 1.306-5.229-2.608-22.077-8.108-42.049-25.854-15.543-13.811-26.038-30.87-29.088-36.087-3.05-5.212-.325-8.033 2.293-10.628 2.352-2.335 5.229-6.085 7.843-9.127 2.614-3.04 3.486-5.212 5.229-8.69 1.742-3.476.87-6.518-.436-9.126-1.307-2.606-11.472-28.372-16.122-38.675z"/></g><path fill="#fefefe" d="M181.97 141.324c-3.916-8.677-8.037-8.853-11.764-9.005-3.048-.127-6.536-.12-10.021-.12-3.486 0-9.15 1.305-13.944 6.52-4.793 5.213-18.3 17.815-18.3 43.453s18.736 50.408 21.35 53.883c2.614 3.478 36.175 57.77 89.323 78.654 44.17 17.354 53.158 13.904 62.744 13.035 9.585-.869 30.936-12.601 35.293-24.768 4.357-12.168 4.357-22.596 3.05-24.771-1.307-2.172-4.793-3.475-10.022-6.082-5.228-2.608-30.936-15.21-35.729-16.948-4.792-1.738-8.278-2.607-11.764 2.608-3.486 5.214-13.507 16.947-16.558 20.422-3.05 3.478-6.1 3.914-11.328 1.306-5.229-2.608-22.077-8.108-42.049-25.854-15.543-13.811-26.038-30.87-29.088-36.087-3.05-5.212-.325-8.033 2.293-10.628 2.352-2.335 5.229-6.085 7.843-9.127 2.614-3.04 3.486-5.212 5.229-8.69 1.742-3.476.87-6.518-.436-9.126-1.307-2.606-11.472-28.372-16.122-38.675z"/></g></g></g></g></svg>