<svg width="45" height="39" xmlns="http://www.w3.org/2000/svg"><g fill="none" fill-rule="evenodd"><path fill="#DDDDDC" d="M6.988 8.333L.915 12.008l1.298.796L7.352 9.74zM38.217 8.333l5.865 3.675-1.209.796L37.84 9.8z"/><path fill="#FFF" d="M35.87 17.414L37.838 9.8l5.035 3.003zM9.38 17.581L7.351 9.74l-5.139 3.064z"/><path fill="#B9B9BA" d="M13.022 19.982l-3.642-2.4L6.799 7.499l6.328-1.978z"/><path fill="#DDDDDC" d="M13.022 2.206V26.22h18.951V5.122L27.28 2.206z"/><path d="M27.28 2.207s1.463.905 1.612 3.967c0 0-1.721-3.564-5.765-3.967h4.153z" fill="#B9B9BA"/><path d="M44.608 13.85v20.374c0 .298-.056.582-.169.845l-.176.341-16.319-10.646-1.585-1.09 6.386-4.2 4.437-2.925 6.9-4.541c.33.59.526 1.244.526 1.841" fill="#FFF"/><path d="M42.502 34.224l1.937.845c-.315.786-1.067 1.338-1.937 1.338H2.494c-1.089 0-1.987-.866-2.093-1.965l2.093-.218L18.579 23.71l-.595-.465 4.514 2.975 4.513-2.975-.653.43 16.144 10.55z" fill="#FFF"/><path d="M18.579 23.71l-1.528 1.054L.733 35.41l-.332-.968c-.006-.072-.013-.145-.013-.218V13.85c0-.59.203-1.251.526-1.84l7.054 4.642 4.282 2.823 6.329 4.235z" fill="#FFF"/><path d="M44.082 12.008l-1.089.717c.131.378.211.762.211 1.125v20.374c0 .299-.056.582-.169.844a2.183 2.183 0 0 1-.169.33l-.007.012a2.08 2.08 0 0 1-1.761.997h1.404c.738 0 1.385-.398 1.759-.998l.002.001.006-.012c.064-.105.123-.214.17-.33.112-.262.169-.545.169-.844V13.85c0-.597-.196-1.253-.526-1.842" fill="#B9B9BA"/><path d="M2.142 35.408l-.005.002-.009-.025c-.17-.28-.29-.598-.323-.943-.006-.072-.013-.145-.013-.218V13.85c0-.358.082-.743.213-1.122l-1.09-.719c-.323.59-.527 1.252-.527 1.841v20.375c0 .073.007.146.014.218.033.345.151.664.323.943l.009.025.004-.002c.376.597 1.02 1 1.755 1h1.405c-.738 0-1.38-.403-1.756-1" fill="#DDDDDC"/><path fill="#CCCBCB" d="M31.65 20.333l4.177-2.751 2.625-10.484-6.466-1.976z"/><path d="M13.522 2.706v15.51a.5.5 0 1 1-1 0V2.205a.5.5 0 0 1 .5-.5H27.28a.5.5 0 0 1 .264.076l4.693 2.915a.5.5 0 0 1 .236.425v13.093a.5.5 0 1 1-1 0V5.4l-4.335-2.694H13.522zM7.4 7.83l1.874 7.351a.5.5 0 1 1-.969.247l-1.99-7.805a.5.5 0 0 1 .33-.6l4.58-1.484.364-.101a.5.5 0 0 1 .268.963l-.344.096L7.4 7.83zM1.17 12.438a.5.5 0 0 1-.512-.859L5.54 8.665a.5.5 0 1 1 .513.859L1.17 12.438zM33.142 5.998a.5.5 0 1 1 .292-.956l5.164 1.578a.5.5 0 0 1 .339.598l-2.035 8.207a.5.5 0 1 1-.971-.24l1.921-7.747-4.71-1.44zM44.345 11.583a.5.5 0 1 1-.526.85l-4.71-2.914a.5.5 0 0 1 .526-.85l4.71 2.914z" fill="#434343" fill-rule="nonzero"/><path d="M43.663 12.28a.5.5 0 0 1 .764-.64c.044.054.063.078.074.095a2.872 2.872 0 0 0-.078-.093l.096.122c.376.674.588 1.41.588 2.085v20.375c0 .367-.07.718-.204 1.031-.397.989-1.34 1.652-2.401 1.652a.5.5 0 1 1 0-1c.645 0 1.225-.408 1.477-1.035.085-.198.128-.415.128-.648V13.85c0-.494-.165-1.066-.462-1.597l.437-.244-.341.366c-.092-.107-.092-.107-.113-.151.006.014.01.02.021.036l.014.022zm-.014-.02a3.217 3.217 0 0 0 .014.02l-.014-.02zM2.494 35.907a.5.5 0 1 1 0 1c-1.342 0-2.46-1.058-2.59-2.417a2.502 2.502 0 0 1-.016-.266V13.849c0-.662.216-1.402.588-2.08a.5.5 0 0 1 .877.48c-.296.54-.465 1.12-.465 1.6v20.375c0 .04.003.078.012.17.081.855.776 1.513 1.594 1.513z" fill="#434343" fill-rule="nonzero"/><path d="M.64 12.426a.5.5 0 0 1 .55-.835l7.054 4.642 4.28 2.824 5.736 3.77 4.513 2.975a.5.5 0 1 1-.55.835l-4.513-2.976-5.735-3.77-4.281-2.823L.64 12.426z" fill="#434343" fill-rule="nonzero"/><path d="M43.807 11.59a.5.5 0 1 1 .55.836l-6.9 4.54-4.437 2.926-5.733 3.769-4.514 2.976a.5.5 0 0 1-.55-.835l4.514-2.976 5.733-3.77 4.436-2.925 6.9-4.54zM42.774 33.805a.5.5 0 0 1-.544.838l-14.558-9.46a.5.5 0 0 1 .545-.838l14.557 9.46zM2.766 34.643a.5.5 0 0 1-.545-.838l14.558-9.46a.5.5 0 1 1 .545.838l-14.558 9.46zM2.494 36.907a.5.5 0 1 1 0-1h40.008a.5.5 0 1 1 0 1H2.494z" fill="#434343" fill-rule="nonzero"/><path d="M27.28 2.207s1.734.855 1.612 4.7l3.094-1.785-4.706-2.915z" fill="#CCCBCB"/><path d="M27.059 2.655l.485-.873 4.705 2.915a.5.5 0 0 1-.013.858l-3.094 1.786a.5.5 0 0 1-.75-.449c.052-1.635-.233-2.8-.725-3.579-.252-.398-.485-.597-.608-.658zm2.33 3.39l1.623-.938-1.99-1.233c.205.615.332 1.336.367 2.17zm-2.372-3.413c-.54-.335-.085-1.155.484-.874.282.139.656.46 1.011 1.021.202.32.373.683.51 1.095l-2.005-1.242z" fill="#434343" fill-rule="nonzero"/></g></svg>