<svg viewBox="0 0 768 285" xmlns="http://www.w3.org/2000/svg"><path d="m19.7 227.91 6.66 54.25h233.16l-7.63-62.13h-108.72l-.95-7.71 100.13-69.96-6.68-54.37h-233.15l7.62 62.14h108.9l.96 7.76z" fill="#fffffa"/><path d="m262.76 87.99 23.84 194.17h233.34l-23.85-194.17z" fill="#aa8fff"/><g fill="#fffffa"><path d="m764.64 157.9c-5.38-43.65-39.64-70.1-86.27-69.9h-155.2l23.83 194.16h69.82l-4.78-38.83h73.89c58.17 0 84.78-36.24 78.71-85.43zm-86.24 31-73 .08-5.72-46.6 73.41.06c17.27.2 26.1 9.92 27.52 23.23.88 8.55-3.04 23.22-22.21 23.22z"/><ellipse cx="306.9" cy="37.62" rx="32.7" ry="37.01" transform="matrix(.6849287 -.7286101 .7286101 .6849287 69.29 235.48)"/></g></svg>