<svg width="77" height="65" xmlns="http://www.w3.org/2000/svg"><g stroke-width="1.8" fill="none" fill-rule="evenodd" stroke-linecap="round" stroke-linejoin="round"><path d="M61.345 41.502a3.277 3.277 0 00-3.26-3.616h-9.827v-7.862a5.24 5.24 0 00-5.412-5.239c-1.38.043-2.451 1.238-2.451 2.618v.503a15.132 15.132 0 01-9.173 13.911H25.98v18.347h2.462c1.78 0 3.487.706 4.745 1.966a6.717 6.717 0 004.746 1.966h16.032c1.714 0 3.277-1.232 3.448-2.938a3.277 3.277 0 00-3.26-3.614h1.123c1.714 0 3.276-1.233 3.447-2.939a3.277 3.277 0 00-3.258-3.614h1.12c1.715 0 3.278-1.232 3.45-2.938a3.278 3.278 0 00-3.26-3.614h1.122c1.714 0 3.277-1.233 3.448-2.937z" stroke="#020303"/><path stroke="#020303" fill="#FAF4F0" d="M15.496 62.784H25.98V39.196H15.496z"/><path stroke="#020303" d="M1.081 37.886h14.416v26.209H1.08"/><path d="M8.944 57.543a1.31 1.31 0 11-2.62 0 1.31 1.31 0 012.62 0zm11.794-2.621v7.862M50.462 7.483v10.115a5.9 5.9 0 005.9 5.9h4.216v5.058l5.057-5.057h4.214a5.9 5.9 0 005.901-5.901V7.483a5.9 5.9 0 00-5.9-5.901H56.362a5.902 5.902 0 00-5.9 5.9z" stroke="#020303"/><path d="M66.86 14.584l-3.754 2.984-3.752-2.984c-.704-.559-1.303-1.247-1.697-2.05-.188-.38-.327-.782-.327-1.127 0-1.699 1.395-3.081 3.11-3.081 1.05 0 1.974.519 2.533 1.311a.898.898 0 01.133.194.948.948 0 01.134-.194 3.095 3.095 0 012.533-1.311c1.715 0 3.11 1.382 3.11 3.08 0 .346-.14.748-.327 1.128-.394.803-.993 1.491-1.696 2.05z" stroke="#221E1F" fill="#F9ECE5"/></g></svg>