<svg width="52" height="51" viewBox="0 0 52 51" fill="none" xmlns="http://www.w3.org/2000/svg">
<path fill-rule="evenodd" clip-rule="evenodd" d="M44.4889 14.5226V22.0321H36.6868C34.531 22.0321 32.7861 23.7786 32.7861 25.9336V35.6864H9.37825C9.09562 35.6864 8.82298 35.6572 8.54958 35.618C8.48122 35.6088 8.42286 35.5988 8.36449 35.5889C8.10106 35.5497 7.83687 35.4821 7.59342 35.4038C7.54503 35.3938 7.50586 35.3746 7.4667 35.3546C7.24244 35.287 7.03738 35.1987 6.8331 35.1012C6.77473 35.072 6.72558 35.0428 6.66721 35.0136C6.44295 34.8969 6.2379 34.7702 6.03361 34.6335C5.97524 34.5843 5.92609 34.5452 5.86772 34.5068C5.69185 34.3793 5.52596 34.2333 5.36929 34.0874C5.33089 34.0582 5.3017 34.0283 5.26254 33.9899C5.08666 33.814 4.92078 33.6189 4.76487 33.4239C4.72647 33.3747 4.6873 33.3263 4.65812 33.2772C3.94618 32.3126 3.52686 31.1222 3.52686 29.835V14.5226C4.18042 14.9519 4.96993 15.2054 5.81857 15.2054H6.38458C8.61793 15.2054 10.4703 13.4689 10.617 11.2456L10.6562 10.6803C10.4903 13.1279 12.431 15.2054 14.8886 15.2054C17.2295 15.2054 19.1311 13.3038 19.1311 10.9629V10.3293C19.1311 13.0204 21.316 15.2054 24.0079 15.2054C26.6997 15.2054 28.8847 13.0204 28.8847 10.3293V10.9629C28.8847 13.3038 30.7862 15.2054 33.1271 15.2054C35.5847 15.2054 37.5262 13.1279 37.3603 10.6803L37.3995 11.2456C37.5454 13.4689 39.3978 15.2054 41.6312 15.2054H42.198C43.0458 15.2054 43.8353 14.9519 44.4889 14.5226Z" stroke="#424242" stroke-width="2" stroke-linecap="round" stroke-linejoin="round"/>
<path fill-rule="evenodd" clip-rule="evenodd" d="M19.1314 35.6865H28.8842L29.8596 43.4894H18.156L19.1314 35.6865Z" stroke="#424242" stroke-width="2" stroke-linecap="round" stroke-linejoin="round"/>
<path d="M32.7859 43.4892H15.2302" stroke="#424242" stroke-width="2" stroke-linecap="round" stroke-linejoin="round"/>
<path d="M32.7859 27.8845H3.52661" stroke="#424242" stroke-width="2" stroke-linecap="round" stroke-linejoin="round"/>
<path fill-rule="evenodd" clip-rule="evenodd" d="M24.9829 31.7854C24.9829 32.3246 24.5467 32.7608 24.0076 32.7608C23.4692 32.7608 23.033 32.3246 23.033 31.7854C23.033 31.2471 23.4692 30.8101 24.0076 30.8101C24.5467 30.8101 24.9829 31.2471 24.9829 31.7854" fill="#424242"/>
<path fill-rule="evenodd" clip-rule="evenodd" d="M11.3292 0.576172L11.0658 4.47761L10.6565 10.68L10.6173 11.246C10.4706 13.4694 8.61821 15.2058 6.38486 15.2058H5.81885C4.97021 15.2058 4.17994 14.9516 3.52714 14.5231C2.35594 13.7719 1.57642 12.4548 1.57642 10.9626V10.7483C1.57642 10.4657 1.6056 10.1923 1.65398 9.91966L3.66384 3.34558C4.16074 1.69745 5.67293 0.576172 7.38864 0.576172H11.3292Z" fill="#DBDADA"/>
<path fill-rule="evenodd" clip-rule="evenodd" d="M11.3292 0.576172L11.0658 4.47761L10.6565 10.68L10.6173 11.246C10.4706 13.4694 8.61821 15.2058 6.38486 15.2058H5.81885C4.97021 15.2058 4.17994 14.9516 3.52714 14.5231C2.35594 13.7719 1.57642 12.4548 1.57642 10.9626V10.7483C1.57642 10.4657 1.6056 10.1923 1.65398 9.91966L3.66384 3.34558C4.16074 1.69745 5.67293 0.576172 7.38864 0.576172H11.3292Z" stroke="#424242" stroke-width="2" stroke-linecap="round" stroke-linejoin="round"/>
<path fill-rule="evenodd" clip-rule="evenodd" d="M19.1313 0.576172V10.9626C19.1313 13.3035 17.2289 15.2058 14.8888 15.2058C12.4305 15.2058 10.4905 13.1284 10.6564 10.68L11.0657 4.47761L11.3292 0.576172H19.1313Z" fill="#DBDADA"/>
<path fill-rule="evenodd" clip-rule="evenodd" d="M19.1313 0.576172V10.9626C19.1313 13.3035 17.2289 15.2058 14.8888 15.2058C12.4305 15.2058 10.4905 13.1284 10.6564 10.68L11.0657 4.47761L11.3292 0.576172H19.1313Z" stroke="#424242" stroke-width="2" stroke-linecap="round" stroke-linejoin="round"/>
<path fill-rule="evenodd" clip-rule="evenodd" d="M28.8844 0.576172V10.329C28.8844 13.0208 26.6995 15.2058 24.0076 15.2058C21.3166 15.2058 19.1316 13.0208 19.1316 10.329V0.576172H28.8844Z" fill="#DBDADA"/>
<path fill-rule="evenodd" clip-rule="evenodd" d="M28.8844 0.576172V10.329C28.8844 13.0208 26.6995 15.2058 24.0076 15.2058C21.3166 15.2058 19.1316 13.0208 19.1316 10.329V0.576172H28.8844Z" stroke="#424242" stroke-width="2" stroke-linecap="round" stroke-linejoin="round"/>
<path fill-rule="evenodd" clip-rule="evenodd" d="M37.3602 10.6802C37.5261 13.1286 35.5846 15.206 33.127 15.206C30.7861 15.206 28.8845 13.3037 28.8845 10.9628V0.576416H36.6866L36.9501 4.47709L37.3602 10.6802Z" fill="#DBDADA"/>
<path fill-rule="evenodd" clip-rule="evenodd" d="M37.3602 10.6802C37.5261 13.1286 35.5846 15.206 33.127 15.206C30.7861 15.206 28.8845 13.3037 28.8845 10.9628V0.576416H36.6866L36.9501 4.47709L37.3602 10.6802Z" stroke="#424242" stroke-width="2" stroke-linecap="round" stroke-linejoin="round"/>
<path fill-rule="evenodd" clip-rule="evenodd" d="M46.4396 10.7483V10.9626C46.4396 12.4548 45.6593 13.7719 44.4889 14.5231C43.8353 14.9516 43.0458 15.2058 42.1979 15.2058H41.6312C39.3978 15.2058 37.5454 13.4694 37.3995 11.2452L37.3603 10.68L36.9502 4.47684L36.6868 0.576172H40.6274C42.3439 0.576172 43.8553 1.69745 44.3522 3.34558L46.3613 9.91889C46.4104 10.1923 46.4396 10.4657 46.4396 10.7483" fill="#DBDADA"/>
<path fill-rule="evenodd" clip-rule="evenodd" d="M46.4396 10.7483V10.9626C46.4396 12.4548 45.6593 13.7719 44.4889 14.5231C43.8353 14.9516 43.0458 15.2058 42.1979 15.2058H41.6312C39.3978 15.2058 37.5454 13.4694 37.3995 11.2452L37.3603 10.68L36.9502 4.47684L36.6868 0.576172H40.6274C42.3439 0.576172 43.8553 1.69745 44.3522 3.34558L46.3613 9.91889C46.4104 10.1923 46.4396 10.4657 46.4396 10.7483Z" stroke="#424242" stroke-width="2" stroke-linecap="round" stroke-linejoin="round"/>
<path fill-rule="evenodd" clip-rule="evenodd" d="M50.3411 25.9337V45.4401C50.3411 47.5959 48.5954 49.3408 46.4396 49.3408H36.6868C34.531 49.3408 32.7861 47.5959 32.7861 45.4401V25.9337C32.7861 23.7787 34.531 22.0322 36.6868 22.0322H46.4396C48.5954 22.0322 50.3411 23.7787 50.3411 25.9337" fill="#FEFEFE"/>
<path fill-rule="evenodd" clip-rule="evenodd" d="M50.3411 25.9337V45.4401C50.3411 47.5959 48.5954 49.3408 46.4396 49.3408H36.6868C34.531 49.3408 32.7861 47.5959 32.7861 45.4401V25.9337C32.7861 23.7787 34.531 22.0322 36.6868 22.0322H46.4396C48.5954 22.0322 50.3411 23.7787 50.3411 25.9337Z" stroke="#424242" stroke-width="2" stroke-linecap="round" stroke-linejoin="round"/>
<path fill-rule="evenodd" clip-rule="evenodd" d="M42.5389 45.44C42.5389 45.9784 42.1019 46.4154 41.5627 46.4154C41.0244 46.4154 40.5881 45.9784 40.5881 45.44C40.5881 44.9009 41.0244 44.4639 41.5627 44.4639C42.1019 44.4639 42.5389 44.9009 42.5389 45.44" fill="#424242"/>
<path fill-rule="evenodd" clip-rule="evenodd" d="M43.5138 23.0078H39.6123L38.637 22.0325H44.4891L43.5138 23.0078Z" stroke="#424242" stroke-width="2" stroke-linecap="round" stroke-linejoin="round"/>
<path fill-rule="evenodd" clip-rule="evenodd" d="M43.9287 40.5634H39.1986C38.35 40.5634 37.6626 39.8752 37.6626 39.0274V33.7358H45.4647V39.0274C45.4647 39.8752 44.7766 40.5634 43.9287 40.5634" fill="#DBDADA"/>
<path fill-rule="evenodd" clip-rule="evenodd" d="M43.9287 40.5634H39.1986C38.35 40.5634 37.6626 39.8752 37.6626 39.0274V33.7358H45.4647V39.0274C45.4647 39.8752 44.7766 40.5634 43.9287 40.5634Z" stroke="#424242" stroke-width="2" stroke-linecap="round" stroke-linejoin="round"/>
<path fill-rule="evenodd" clip-rule="evenodd" d="M43.514 33.7361H39.6125V32.3461C39.6125 31.4974 40.2999 30.8101 41.1485 30.8101H41.978C42.8259 30.8101 43.514 31.4974 43.514 32.3461V33.7361Z" stroke="#424242" stroke-width="2" stroke-linecap="round" stroke-linejoin="round"/>
</svg>
