<svg width="72" height="61" xmlns="http://www.w3.org/2000/svg"><g stroke-width="1.8" fill="none" fill-rule="evenodd" stroke-linecap="round" stroke-linejoin="round"><path d="M70.533 19.346V56.85a2.96 2.96 0 01-2.96 2.96H14.279a2.96 2.96 0 01-2.96-2.96V24.28c0-1.635 1.324-3.947 2.96-3.947h20.725l4.934-3.947h27.635a2.96 2.96 0 012.96 2.96z" stroke="#221E1F"/><path d="M35.004 20.333H24.148v-1.394a2.553 2.553 0 012.553-2.553h5.75a2.553 2.553 0 012.553 2.553v1.394zm-14.804 0h-4.935v-1.482a2.466 2.466 0 012.467-2.465h.002a2.465 2.465 0 012.467 2.465v1.482z" stroke="#221E1F"/><path d="M64.612 39.084c0 9.266-7.512 16.777-16.777 16.777-9.267 0-16.779-7.511-16.779-16.777 0-9.265 7.512-16.778 16.779-16.778 9.265 0 16.777 7.513 16.777 16.778z" stroke="#221E1F" fill="#F9ECE5"/><path d="M59.677 39.084c0 6.542-5.301 11.843-11.843 11.843-6.541 0-11.843-5.301-11.843-11.843 0-6.541 5.302-11.843 11.843-11.843 6.542 0 11.843 5.302 11.843 11.843z" stroke="#221E1F" fill="#FFF"/><path d="M19.332 53.888h-8.013V26.255h8.013a3.83 3.83 0 013.83 3.83v19.973a3.83 3.83 0 01-3.83 3.83z" stroke="#221E1F" fill="#FAF4F0"/><path d="M30.07 27.241a.987.987 0 11-1.973 0 .987.987 0 011.973 0zm28.62-5.921h6.909" stroke="#221E1F"/><path d="M17.887 1.638l-.028 5.107m8.95-3.746L24.227 8.09m8.909 1.347l-5.12 2.525M1.138 18.08l5.107.026M8.938 2.83l2.525 5.121m-8.964-.07L7.59 11.74" stroke="#020303"/></g></svg>