<svg width="111" height="62" xmlns="http://www.w3.org/2000/svg"><g stroke="#221E1F" stroke-width="1.8" fill="none" fill-rule="evenodd" stroke-linecap="round" stroke-linejoin="round"><path d="M78.72 37.727H3.766V29.74a9.411 9.411 0 019.412-9.412h56.13a9.412 9.412 0 019.412 9.412v7.988z" fill="#FAF4F0"/><path d="M78.72 37.727H3.766v-2.473A8.235 8.235 0 0112 27.02h58.484a8.235 8.235 0 018.235 8.235v2.473z"/><path d="M78.72 37.727H3.766V6.294a4.706 4.706 0 014.706-4.706h65.542a4.706 4.706 0 014.706 4.706v31.433z"/><path d="M38.565 20.327H14.472v-7.179a3.53 3.53 0 013.53-3.53h17.034a3.53 3.53 0 013.53 3.53v7.18zm29.447 0H44.385v-7.179a3.53 3.53 0 013.53-3.53h16.568a3.53 3.53 0 013.53 3.53v7.18zm-66.924 17.4v22.754H7.78v-8.03h66.925v8.03h6.692V37.727z"/><path d="M109.906 25.124c0 5.691-4.932 10.234-10.751 9.59-2.75-.3-5.177-1.813-6.735-3.976a9.475 9.475 0 01-1.745-4.436 9.632 9.632 0 012.027-7.172c.448-.566.682-1.297.507-1.99a6.769 6.769 0 01-.194-1.666c0-1.9.74-3.626 1.939-4.922.546-.585.72-1.394.564-2.184a4.983 4.983 0 01-.087-.935 4.83 4.83 0 015.382-4.795c2.065.233 3.79 1.822 4.18 3.859a4.86 4.86 0 010 1.871c-.165.79.02 1.6.565 2.184a7.218 7.218 0 011.93 4.922c0 .517-.048 1.033-.155 1.52-.166.741 0 1.53.477 2.136a9.607 9.607 0 012.096 5.994z" fill="#F9ECE5"/><path d="M100.159 12.355v29.24M98.21 16.254l1.949 1.95m0 9.746l3.899-3.899m2.288 35.411H93.053a.95.95 0 01-.948-.949l-1.339-15.97c0-.52.427-.949.948-.949h15.971c.521 0 .948.428.948.95l-1.339 15.97a.95.95 0 01-.948.948z"/></g></svg>